<svg width="40" height="40" viewBox="0 0 40 40" fill="none" xmlns="http://www.w3.org/2000/svg">
<g filter="url(#filter0_d_1697_186356)">
<rect x="4" width="32" height="32" rx="16" fill="#00AAA4" shape-rendering="crispEdges"/>
<rect x="5" y="1" width="30" height="30" rx="15" stroke="white" stroke-width="2" shape-rendering="crispEdges"/>
<path d="M12.5 15.9999C12.5 15.0794 13.2462 14.3333 14.1667 14.3333C15.0871 14.3333 15.8333 15.0794 15.8333 15.9999C15.8333 16.9204 15.0871 17.6666 14.1667 17.6666C13.2462 17.6666 12.5 16.9204 12.5 15.9999ZM18.3333 15.9999C18.3333 15.0794 19.0795 14.3333 20 14.3333C20.9205 14.3333 21.6667 15.0794 21.6667 15.9999C21.6667 16.9204 20.9205 17.6666 20 17.6666C19.0795 17.6666 18.3333 16.9204 18.3333 15.9999ZM24.1667 15.9999C24.1667 15.0794 24.9129 14.3333 25.8333 14.3333C26.7538 14.3333 27.5 15.0794 27.5 15.9999C27.5 16.9204 26.7538 17.6666 25.8333 17.6666C24.9129 17.6666 24.1667 16.9204 24.1667 15.9999Z" fill="white"/>
</g>
<defs>
<filter id="filter0_d_1697_186356" x="0" y="0" width="40" height="40" filterUnits="userSpaceOnUse" color-interpolation-filters="sRGB">
<feFlood flood-opacity="0" result="BackgroundImageFix"/>
<feColorMatrix in="SourceAlpha" type="matrix" values="0 0 0 0 0 0 0 0 0 0 0 0 0 0 0 0 0 0 127 0" result="hardAlpha"/>
<feOffset dy="4"/>
<feGaussianBlur stdDeviation="2"/>
<feComposite in2="hardAlpha" operator="out"/>
<feColorMatrix type="matrix" values="0 0 0 0 0 0 0 0 0 0 0 0 0 0 0 0 0 0 0.25 0"/>
<feBlend mode="normal" in2="BackgroundImageFix" result="effect1_dropShadow_1697_186356"/>
<feBlend mode="normal" in="SourceGraphic" in2="effect1_dropShadow_1697_186356" result="shape"/>
</filter>
</defs>
</svg>
